<?xml version="1.0" encoding="UTF-8"?>
<svg version="1.1" xmlns="http://www.w3.org/2000/svg" width="295" height="259">
<path d="M0 0 C21.41354519 17.55219315 36.79940379 43.73942767 40.71875 71.36328125 C43.02997878 101.24875339 37.9500026 131.27813414 19 155.4375 C17.68352412 156.97294882 16.34960306 158.49358592 15 160 C14.20980469 160.92039063 13.41960937 161.84078125 12.60546875 162.7890625 C6.44932991 169.85022336 6.44932991 169.85022336 3 171 C2.67 171.99 2.34 172.98 2 174 C-10.5981154 184.3353471 -25.38099274 191.6160097 -41 196 C-42.09441406 196.30808594 -43.18882812 196.61617187 -44.31640625 196.93359375 C-74.1196672 204.28764515 -104.1161318 198.56806366 -130.1953125 183.10546875 C-132.83581583 181.45425482 -135.42620973 179.75291364 -138 178 C-138.73476562 177.51273438 -139.46953125 177.02546875 -140.2265625 176.5234375 C-141.86097397 175.40995399 -143.43892824 174.21416693 -145 173 C-145 172.34 -145 171.68 -145 171 C-145.59425781 170.72929687 -146.18851563 170.45859375 -146.80078125 170.1796875 C-162.88975569 161.54936729 -172.98412172 137.5826778 -178.40234375 120.99951172 C-180.06770068 115.42791317 -181.09099871 109.73891857 -182 104 C-182.13148438 103.23945313 -182.26296875 102.47890625 -182.3984375 101.6953125 C-186.55187833 72.84573702 -178.08258653 42.81529905 -160.9609375 19.45703125 C-149.44131527 5.02308228 -136.39632047 -5.58349796 -120 -14 C-119.16597656 -14.43183594 -118.33195312 -14.86367188 -117.47265625 -15.30859375 C-79.43513011 -33.51277293 -32.52169801 -25.62224435 0 0 Z M-139.984375 17.92578125 C-141.75482963 19.88708764 -143.38049028 21.91246682 -145 24 C-145.70640625 24.84820312 -146.4128125 25.69640625 -147.140625 26.5703125 C-162.813931 46.13528972 -170.19018247 72.18824444 -167.79785156 97.10546875 C-166.13452798 110.48737773 -162.31799764 124.05973661 -156 136 C-155.67 136 -155.34 136 -155 136 C-154.89945313 135.13761719 -154.79890625 134.27523437 -154.6953125 133.38671875 C-152.87150799 121.55697306 -147.94997462 112.28070614 -142 102 C-141.57203125 101.25395508 -141.1440625 100.50791016 -140.703125 99.73925781 C-137.1946765 93.64007998 -133.57993857 87.60734663 -129.93359375 81.58984375 C-124.90115277 73.27246977 -120.01630395 64.87453422 -115.1875 56.4375 C-114.84251465 55.83493378 -114.4975293 55.23236755 -114.14208984 54.61154175 C-108.94352364 45.51967112 -103.86168041 36.37096729 -98.98120117 27.10327148 C-90.46398037 11.16566195 -90.46398037 11.16566195 -82 8 C-73.1684123 5.52145765 -64.37937369 4.67428436 -56 9 C-49.57158591 13.25502521 -46.66059438 18.68384774 -43.375 25.5 C-39.37262277 33.47749722 -35.21263944 41.28052789 -30.625 48.9375 C-30.08504395 49.83976318 -29.54508789 50.74202637 -28.98876953 51.67163086 C-27.88368914 53.51566235 -26.77772681 55.35916559 -25.67089844 57.20214844 C-22.82556713 61.96654013 -20.03951216 66.76528517 -17.25 71.5625 C-13.34847889 78.26444503 -9.43902295 84.96157302 -5.51171875 91.6484375 C-5.13111298 92.29668991 -4.7505072 92.94494232 -4.35836792 93.61283875 C-2.85355346 96.17569406 -1.34872543 98.73853815 0.1583252 101.30007935 C2.44928767 105.19404858 4.72640926 109.09585113 7 113 C7.5144165 113.86246338 8.02883301 114.72492676 8.55883789 115.61352539 C11.07680836 119.93140701 12.67544687 123.52398889 13.3125 128.5625 C13.45300781 129.59503906 13.59351563 130.62757813 13.73828125 131.69140625 C13.82464844 132.45324219 13.91101563 133.21507812 14 134 C27.15571159 118.573362 27.28048086 92.93239265 26 74 C23.20732607 49.40119713 8.91001139 27.25029876 -9.828125 11.609375 C-48.86490772 -17.31716183 -104.32961411 -16.67618158 -139.984375 17.92578125 Z M-70 76 C-75.01262192 81.82472267 -79.41975392 87.91143311 -83.5625 94.375 C-84.01608887 95.06464844 -84.46967773 95.75429687 -84.93701172 96.46484375 C-87.39837235 100.06223575 -87.39837235 100.06223575 -87.61303711 104.22119141 C-87.41073486 104.80819824 -87.20843262 105.39520508 -87 106 C-81.30454401 106.96729891 -75.7717045 107.18319276 -70 107.1875 C-68.70449219 107.20586914 -68.70449219 107.20586914 -67.3828125 107.22460938 C-62.21010801 107.23640125 -57.84054082 106.89713905 -53 105 C-50.71526178 102.20955864 -50.71526178 102.20955864 -51.11328125 99.18359375 C-52.16753948 95.3984816 -53.7667147 93.14829165 -56.1875 90.0625 C-56.99832031 89.02609375 -57.80914062 87.9896875 -58.64453125 86.921875 C-59.81048828 85.47554687 -59.81048828 85.47554687 -61 84 C-61.60199219 83.24203125 -62.20398438 82.4840625 -62.82421875 81.703125 C-65.80940866 78.03234909 -65.80940866 78.03234909 -70 76 Z M-120.5 149.0625 C-124.7431708 153.97271948 -128.29087455 156.9784228 -134.875 157.75 C-136.24890621 157.84975557 -137.62383557 157.93883714 -139 158 C-123.40057651 174.49494594 -98.43192415 184.09643738 -76 185 C-75.25363281 185.03996094 -74.50726563 185.07992187 -73.73828125 185.12109375 C-49.83768976 185.79268062 -27.6860634 177.73616382 -9 163 C-8.07316406 162.30261719 -7.14632812 161.60523438 -6.19140625 160.88671875 C-5.46824219 160.26410156 -4.74507812 159.64148438 -4 159 C-4 158.34 -4 157.68 -4 157 C-3.01 156.67 -2.02 156.34 -1 156 C-3.19010225 154.65895251 -3.19010225 154.65895251 -6.6875 155.625 C-11.208374 156.24743917 -13.98800447 155.27094087 -18 153 C-20.64333891 150.66402608 -22.76116561 148.31844586 -24.875 145.5 C-29.39167618 140.18626332 -33.23013204 137.79018269 -40.29833984 137.15686035 C-45.68628921 136.8440321 -51.07295662 136.81573516 -56.46875 136.796875 C-57.74423706 136.79117493 -59.01972412 136.78547485 -60.3338623 136.77960205 C-63.01997432 136.77019339 -65.70597574 136.76327442 -68.39208984 136.75976562 C-71.81129775 136.75427227 -75.23010928 136.73019498 -78.64919281 136.70179367 C-81.94318107 136.67856094 -85.23719133 136.67671263 -88.53125 136.671875 C-89.74711792 136.6595282 -90.96298584 136.6471814 -92.21569824 136.63446045 C-104.79718538 136.6672511 -112.33278762 139.4687003 -120.5 149.0625 Z " fill="#FC9122" transform="translate(218,41)"/>
<path d="M0 0 C3.58369969 3.24239496 6.0076218 6.93097831 8.4375 11.0625 C8.83291992 11.73224854 9.22833984 12.40199707 9.63574219 13.09204102 C24.33000328 38.32403124 29.60896359 68.37854046 22.5390625 96.98779297 C18.02716104 113.82977296 10.70285144 129.93738868 -1 143 C-1.79019531 143.92039063 -2.58039063 144.84078125 -3.39453125 145.7890625 C-9.55067009 152.85022336 -9.55067009 152.85022336 -13 154 C-13.33 154.99 -13.66 155.98 -14 157 C-26.5981154 167.3353471 -41.38099274 174.6160097 -57 179 C-58.09441406 179.30808594 -59.18882812 179.61617187 -60.31640625 179.93359375 C-90.1196672 187.28764515 -120.1161318 181.56806366 -146.1953125 166.10546875 C-148.83581583 164.45425482 -151.42620973 162.75291364 -154 161 C-154.73476562 160.51273438 -155.46953125 160.02546875 -156.2265625 159.5234375 C-157.86097397 158.40995399 -159.43892824 157.21416693 -161 156 C-161 155.34 -161 154.68 -161 154 C-162.32 153.34 -163.64 152.68 -165 152 C-165 150.68 -165 149.36 -165 148 C-163.171875 146.26171875 -163.171875 146.26171875 -160.75 144.6875 C-159.96109375 144.15511719 -159.1721875 143.62273437 -158.359375 143.07421875 C-156 142 -156 142 -154.08203125 142.05078125 C-151.04656868 143.43467882 -148.56139273 145.47338861 -145.9375 147.5 C-130.19020108 159.1205512 -111.64318749 166.20876828 -92 167 C-91.25363281 167.03996094 -90.50726563 167.07992187 -89.73828125 167.12109375 C-66.09652075 167.78540768 -43.32565113 159.91999915 -25 145 C-24.44699219 144.42765625 -23.89398438 143.8553125 -23.32421875 143.265625 C-22 142 -22 142 -20 142 C-20 141.34 -20 140.68 -20 140 C-20.99 140 -21.98 140 -23 140 C-30.31410417 139.63429479 -34.44971361 137.65787083 -39.546875 132.40625 C-43 128.44873596 -43 128.44873596 -43 126 C-43.598125 125.71125 -44.19625 125.4225 -44.8125 125.125 C-47 124 -47 124 -50 122 C-57.46494497 120.81144731 -64.9231737 120.82324939 -72.46875 120.796875 C-73.74423706 120.79117493 -75.01972412 120.78547485 -76.3338623 120.77960205 C-79.01997432 120.77019339 -81.70597574 120.76327442 -84.39208984 120.75976562 C-87.81129775 120.75427227 -91.23010928 120.73019498 -94.64919281 120.70179367 C-97.94318107 120.67856094 -101.23719133 120.67671263 -104.53125 120.671875 C-106.35505188 120.6533548 -106.35505188 120.6533548 -108.21569824 120.63446045 C-115.08131114 120.65235404 -120.65563902 121.36615255 -127 124 C-127.99 124.33 -128.98 124.66 -130 125 C-126.26355559 113.58808847 -115.64047413 99.80571223 -105.546875 93.45703125 C-98.25039528 89.818982 -91.12799277 89.39056104 -83.11816406 89.27563477 C-78.02706718 89.19899783 -73.8322215 88.63682537 -69 87 C-67.97653475 83.83656196 -67.84265177 82.37720467 -69.140625 79.265625 C-71.27941702 75.50925918 -73.73627589 72.23796977 -76.4375 68.875 C-77.15389648 67.96427734 -77.15389648 67.96427734 -77.88476562 67.03515625 C-80.42951326 63.83065923 -83.02734023 60.82508092 -86 58 C-85.66379639 57.55422607 -85.32759277 57.10845215 -84.98120117 56.64916992 C-78.51265217 48.01967975 -72.30970339 39.28593015 -66.8125 30 C-66.35576904 29.24871826 -65.89903809 28.49743652 -65.4284668 27.72338867 C-62.06957547 21.90680314 -60 15.7893825 -60 9 C-59.34 9 -58.68 9 -58 9 C-57.71769531 9.61101562 -57.43539062 10.22203125 -57.14453125 10.8515625 C-52.30149343 20.93530694 -46.4947047 30.42677885 -40.76757812 40.02490234 C-37.89877496 44.85352602 -35.07438203 49.70780235 -32.25 54.5625 C-28.34831141 61.26434797 -24.4390233 67.96157244 -20.51171875 74.6484375 C-20.13111298 75.29668991 -19.7505072 75.94494232 -19.35836792 76.61283875 C-17.85355346 79.17569406 -16.34872543 81.73853815 -14.8416748 84.30007935 C-12.5507137 88.19404626 -10.27141831 92.09458463 -8 96 C-7.4855835 96.87406494 -6.97116699 97.74812988 -6.44116211 98.64868164 C-4.16881818 102.59120451 -2.39372056 106.00416728 -1.6875 110.5625 C-1.47673828 111.83287109 -1.47673828 111.83287109 -1.26171875 113.12890625 C-1.17535156 113.74636719 -1.08898437 114.36382812 -1 115 C10.15339265 89.45873084 13.64002943 62.3836797 3.421875 35.796875 C0.11830945 27.65053967 -3.98677896 20.23544039 -9 13 C-9.99 11.515 -9.99 11.515 -11 10 C-9.93458984 9.16855469 -9.93458984 9.16855469 -8.84765625 8.3203125 C-7.46900391 7.23363281 -7.46900391 7.23363281 -6.0625 6.125 C-5.14597656 5.40570313 -4.22945312 4.68640625 -3.28515625 3.9453125 C-0.93990515 2.20579164 -0.93990515 2.20579164 0 0 Z " fill="#0D5554" transform="translate(234,58)"/>
<path d="M0 0 C3.58369969 3.24239496 6.0076218 6.93097831 8.4375 11.0625 C8.83291992 11.73224854 9.22833984 12.40199707 9.63574219 13.09204102 C24.33000328 38.32403124 29.60896359 68.37854046 22.5390625 96.98779297 C18.02716104 113.82977296 10.70285144 129.93738868 -1 143 C-1.79019531 143.92039063 -2.58039063 144.84078125 -3.39453125 145.7890625 C-9.55067009 152.85022336 -9.55067009 152.85022336 -13 154 C-13.33 154.99 -13.66 155.98 -14 157 C-26.5981154 167.3353471 -41.38099274 174.6160097 -57 179 C-58.09441406 179.30808594 -59.18882812 179.61617187 -60.31640625 179.93359375 C-90.1196672 187.28764515 -120.1161318 181.56806366 -146.1953125 166.10546875 C-148.83581583 164.45425482 -151.42620973 162.75291364 -154 161 C-154.73476562 160.51273438 -155.46953125 160.02546875 -156.2265625 159.5234375 C-157.86097397 158.40995399 -159.43892824 157.21416693 -161 156 C-161 155.34 -161 154.68 -161 154 C-162.32 153.34 -163.64 152.68 -165 152 C-165 150.68 -165 149.36 -165 148 C-164.01 147.67 -163.02 147.34 -162 147 C-162 148.32 -162 149.64 -162 151 C-150.88000138 165.19353861 -127.88245041 174.0335211 -111 178 C-110.06285156 178.22558594 -109.12570313 178.45117188 -108.16015625 178.68359375 C-88.43323844 182.69537928 -68.05456176 179.54314524 -49 174 C-47.68769438 173.62432035 -46.37519875 173.24930366 -45.0625 172.875 C-44.051875 172.58625 -43.04125 172.2975 -42 172 C-42.185625 171.05125 -42.37125 170.1025 -42.5625 169.125 C-43 166 -43 166 -42 164 C-41.34 164 -40.68 164 -40 164 C-40.66 162.68 -41.32 161.36 -42 160 C-43.85625 160.61875 -43.85625 160.61875 -45.75 161.25 C-46.57242188 161.52199219 -47.39484375 161.79398438 -48.2421875 162.07421875 C-50.12766776 162.70716326 -52.00773784 163.35639509 -53.8828125 164.01953125 C-54.87023437 164.36371094 -55.85765625 164.70789063 -56.875 165.0625 C-58.23238281 165.54396484 -58.23238281 165.54396484 -59.6171875 166.03515625 C-85.65245256 173.46091892 -112.3969068 169.5041212 -136 157 C-140.18526028 154.594678 -144.11859991 151.86680919 -148 149 C-149.24136719 148.09121094 -149.24136719 148.09121094 -150.5078125 147.1640625 C-152.35364265 145.79416068 -154.18449199 144.40968857 -156 143 C-155.01 142.67 -154.02 142.34 -153 142 C-151.08984375 143.22265625 -151.08984375 143.22265625 -148.9375 145.0625 C-132.81142029 158.13420185 -112.81462162 166.16158267 -92 167 C-91.25363281 167.03996094 -90.50726563 167.07992187 -89.73828125 167.12109375 C-66.09652075 167.78540768 -43.32565113 159.91999915 -25 145 C-24.44699219 144.42765625 -23.89398438 143.8553125 -23.32421875 143.265625 C-22 142 -22 142 -20 142 C-20 141.34 -20 140.68 -20 140 C-19.01 139.67 -18.02 139.34 -17 139 C-18.30732382 141.91633776 -19.75864056 143.75864056 -22 146 C-22 146.66 -22 147.32 -22 148 C-21.34 148 -20.68 148 -20 148 C-19.38125 148.825 -18.7625 149.65 -18.125 150.5 C-17.42375 151.325 -16.7225 152.15 -16 153 C-14.68 153 -13.36 153 -12 153 C-12 152.34 -12 151.68 -12 151 C-11.34 151 -10.68 151 -10 151 C-9.731875 150.360625 -9.46375 149.72125 -9.1875 149.0625 C-8 147 -8 147 -5 146 C-4.29572544 144.68614325 -3.63675454 143.34787458 -3 142 C-1.64495392 140.23450428 -0.26707121 138.48645119 1.125 136.75 C8.45611121 127.21940681 13.3070265 116.4513905 17.375 105.1875 C17.61371826 104.53112549 17.85243652 103.87475098 18.09838867 103.19848633 C21.67911132 92.75935241 22.38965416 82.41765548 22.375 71.4375 C22.37478851 70.7793631 22.37457703 70.1212262 22.37435913 69.44314575 C22.30490239 47.7275458 16.56110893 25.31976542 3.2578125 7.69140625 C2 6 2 6 2 4 C0.02 3.505 0.02 3.505 -2 3 C-1.34 2.01 -0.68 1.02 0 0 Z " fill="#0C5150" transform="translate(234,58)"/>
<path d="M0 0 C24.49943107 -1.64241996 48.43478008 11.31697209 66.5859375 26.8359375 C77.28947468 36.43101775 77.28947468 36.43101775 78 42 C76.37982158 43.33918806 74.75370657 44.6711969 73.125 46 C72.22007812 46.7425 71.31515625 47.485 70.3828125 48.25 C68 50 68 50 66 50 C64.58984375 48.53125 64.58984375 48.53125 62.9375 46.5 C47.91937042 28.9839885 25.84925539 17.8838866 3 15 C-21.75168206 13.84639714 -42.89199673 17.83890867 -64 31 C-64.66 31.33 -65.32 31.66 -66 32 C-63.21292955 25.03232388 -54.84824505 22.24905006 -48.375 19.375 C-42.12883636 16.85047493 -35.72376558 15.30424379 -29.17578125 13.796875 C-26.15725689 13.32850729 -26.15725689 13.32850729 -25 12 C-23.27576012 11.900126 -21.54744132 11.86919146 -19.8203125 11.8671875 C-18.74523437 11.86589844 -17.67015625 11.86460938 -16.5625 11.86328125 C-15.428125 11.86714844 -14.29375 11.87101562 -13.125 11.875 C-11.48144531 11.86919922 -11.48144531 11.86919922 -9.8046875 11.86328125 C0.80713969 11.8758545 10.32314133 12.30887002 20.3125 16.0625 C25.37150885 17.94082359 29.50195177 19.41082395 35 19 C34.814375 17.88625 34.62875 16.7725 34.4375 15.625 C34 12 34 12 35 10 C24.15405031 5.99644681 24.15405031 5.99644681 13 3 C12.67 3.66 12.34 4.32 12 5 C11.505 3.515 11.505 3.515 11 2 C10.113125 2.20625 9.22625 2.4125 8.3125 2.625 C4.7747289 3.02550239 3.13367033 2.56683516 0 1 C0 0.67 0 0.34 0 0 Z " fill="#FB9122" transform="translate(156,18)"/>
<path d="M0 0 C3.58369969 3.24239496 6.0076218 6.93097831 8.4375 11.0625 C8.83291992 11.73224854 9.22833984 12.40199707 9.63574219 13.09204102 C24.33000328 38.32403124 29.60896359 68.37854046 22.5390625 96.98779297 C18.02716104 113.82977296 10.70285144 129.93738868 -1 143 C-1.79019531 143.92039063 -2.58039063 144.84078125 -3.39453125 145.7890625 C-9.55067009 152.85022336 -9.55067009 152.85022336 -13 154 C-13.33 154.99 -13.66 155.98 -14 157 C-26.5981154 167.3353471 -41.38099274 174.6160097 -57 179 C-58.09441406 179.30808594 -59.18882812 179.61617187 -60.31640625 179.93359375 C-90.1196672 187.28764515 -120.1161318 181.56806366 -146.1953125 166.10546875 C-148.83581583 164.45425482 -151.42620973 162.75291364 -154 161 C-154.73476562 160.51273438 -155.46953125 160.02546875 -156.2265625 159.5234375 C-157.86097397 158.40995399 -159.43892824 157.21416693 -161 156 C-161 155.34 -161 154.68 -161 154 C-162.32 153.34 -163.64 152.68 -165 152 C-165 150.68 -165 149.36 -165 148 C-164.01 147.67 -163.02 147.34 -162 147 C-162 148.32 -162 149.64 -162 151 C-150.88000138 165.19353861 -127.88245041 174.0335211 -111 178 C-110.06285156 178.22558594 -109.12570313 178.45117188 -108.16015625 178.68359375 C-80.33522586 184.34224018 -49.31804357 177.72098812 -25.78393555 162.33740234 C-21.57160648 159.50098395 -17.79328761 156.3622322 -14 153 C-13.34 153 -12.68 153 -12 153 C-12 152.34 -12 151.68 -12 151 C-11.34 151 -10.68 151 -10 151 C-9.731875 150.360625 -9.46375 149.72125 -9.1875 149.0625 C-8 147 -8 147 -5 146 C-4.29572544 144.68614325 -3.63675454 143.34787458 -3 142 C-1.64495392 140.23450428 -0.26707121 138.48645119 1.125 136.75 C8.45611121 127.21940681 13.3070265 116.4513905 17.375 105.1875 C17.61371826 104.53112549 17.85243652 103.87475098 18.09838867 103.19848633 C21.67911132 92.75935241 22.38965416 82.41765548 22.375 71.4375 C22.37478851 70.7793631 22.37457703 70.1212262 22.37435913 69.44314575 C22.30490239 47.7275458 16.56110893 25.31976542 3.2578125 7.69140625 C2 6 2 6 2 4 C0.02 3.505 0.02 3.505 -2 3 C-1.34 2.01 -0.68 1.02 0 0 Z " fill="#021B1A" transform="translate(234,58)"/>
<path d="M0 0 C0.66 0.33 1.32 0.66 2 1 C0.71034824 2.37562854 -0.62689293 3.70766393 -2 5 C-2.66 5 -3.32 5 -4 5 C-3.54729736 5.73766602 -3.54729736 5.73766602 -3.08544922 6.49023438 C12.89879609 32.74266625 20.88134362 59.93550849 13.65136719 90.61279297 C12.40150428 95.19343745 10.82078447 99.63004844 9.125 104.0625 C8.79757813 104.93841797 8.47015625 105.81433594 8.1328125 106.71679688 C7.21658823 108.95546204 6.34399853 110.98871386 5 113 C2.2421875 114.05859375 2.2421875 114.05859375 0 114 C-0.03996094 113.2471875 -0.07992187 112.494375 -0.12109375 111.71875 C-1.05656169 102.20238476 -4.66464454 95.36330218 -9.54296875 87.40087891 C-11.74190033 83.77750539 -13.85283169 80.10410931 -15.97607422 76.43603516 C-21.13770179 67.52927952 -26.37579454 58.66781221 -31.625 49.8125 C-37.86772322 39.27499595 -43.97933045 28.6658567 -50 18 C-50.54454834 17.03707031 -50.54454834 17.03707031 -51.10009766 16.0546875 C-56 7.36107658 -56 7.36107658 -56 5 C-55.34 5 -54.68 5 -54 5 C-53.57654297 5.91652344 -53.57654297 5.91652344 -53.14453125 6.8515625 C-48.30149343 16.93530694 -42.4947047 26.42677885 -36.76757812 36.02490234 C-33.89877496 40.85352602 -31.07438203 45.70780235 -28.25 50.5625 C-24.34831141 57.26434797 -20.4390233 63.96157244 -16.51171875 70.6484375 C-15.94081009 71.62081612 -15.94081009 71.62081612 -15.35836792 72.61283875 C-13.85355346 75.17569406 -12.34872543 77.73853815 -10.8416748 80.30007935 C-8.5507137 84.19404626 -6.27141831 88.09458463 -4 92 C-3.22837524 93.31109741 -3.22837524 93.31109741 -2.44116211 94.64868164 C-0.16881818 98.59120451 1.60627944 102.00416728 2.3125 106.5625 C2.45300781 107.40941406 2.59351563 108.25632812 2.73828125 109.12890625 C2.82464844 109.74636719 2.91101563 110.36382812 3 111 C14.15339265 85.45873084 17.64002943 58.3836797 7.421875 31.796875 C4.11830945 23.65053967 0.01322104 16.23544039 -5 9 C-5.66 8.01 -6.32 7.02 -7 6 C-3.535 3.03 -3.535 3.03 0 0 Z " fill="#031D1E" transform="translate(230,62)"/>
<path d="M0 0 C0 3 0 3 -1.29296875 4.5078125 C-12.15121039 13.77649712 -23.18568246 21.24432706 -36.8125 25.625 C-37.45227783 25.83157227 -38.09205566 26.03814453 -38.7512207 26.25097656 C-65.63932602 34.50771593 -93.42801936 31.01740502 -118 18 C-122.18526028 15.594678 -126.11859991 12.86680919 -130 10 C-130.82757813 9.39414063 -131.65515625 8.78828125 -132.5078125 8.1640625 C-134.35364265 6.79416068 -136.18449199 5.40968857 -138 4 C-137.01 3.67 -136.02 3.34 -135 3 C-133.08984375 4.22265625 -133.08984375 4.22265625 -130.9375 6.0625 C-114.81142029 19.13420185 -94.81462162 27.16158267 -74 28 C-73.25363281 28.03996094 -72.50726563 28.07992187 -71.73828125 28.12109375 C-48.09652075 28.78540768 -25.32565113 20.91999915 -7 6 C-6.44699219 5.42765625 -5.89398438 4.8553125 -5.32421875 4.265625 C-4 3 -4 3 -2 3 C-2 2.34 -2 1.68 -2 1 C-1.34 0.67 -0.68 0.34 0 0 Z " fill="#02191A" transform="translate(216,197)"/>
<path d="M0 0 C1.09267685 -0.00095673 2.1853537 -0.00191345 3.31114197 -0.00289917 C5.62173521 -0.00357854 7.93233037 -0.00174124 10.24291992 0.00244141 C13.74076756 0.00775692 17.23848466 0.00250683 20.73632812 -0.00390625 C55.10492697 -0.0205084 55.10492697 -0.0205084 61.30224609 5.56298828 C62.90591988 7.22313992 64.41167079 8.93325565 65.90234375 10.6953125 C70.0580284 15.94275156 70.0580284 15.94275156 75.71484375 19.1328125 C78.99427133 19.37424916 78.99427133 19.37424916 82.46484375 19.2578125 C83.6353125 19.23976562 84.80578125 19.22171875 86.01171875 19.203125 C87.34976563 19.16832031 87.34976563 19.16832031 88.71484375 19.1328125 C85.11327657 21.53385729 81.97560243 22.18773941 77.71484375 22.1328125 C72.422965 20.51834102 69.38908973 18.20427426 65.71484375 14.1328125 C64.57015625 13.05 64.57015625 13.05 63.40234375 11.9453125 C61.71484375 10.1328125 61.71484375 10.1328125 61.71484375 8.1328125 C61.11671875 7.8440625 60.51859375 7.5553125 59.90234375 7.2578125 C57.71484375 6.1328125 57.71484375 6.1328125 54.71484375 4.1328125 C47.24989878 2.94425981 39.79167005 2.95606189 32.24609375 2.9296875 C30.97060669 2.92398743 29.69511963 2.91828735 28.38098145 2.91241455 C25.69486943 2.90300589 23.00886801 2.89608692 20.32275391 2.89257812 C16.903546 2.88708477 13.48473447 2.86300748 10.06565094 2.83460617 C6.77166268 2.81137344 3.47765242 2.80952513 0.18359375 2.8046875 C-1.03227417 2.7923407 -2.24814209 2.7799939 -3.50085449 2.76727295 C-10.36646739 2.78516654 -15.94079527 3.49896505 -22.28515625 6.1328125 C-23.27515625 6.4628125 -24.26515625 6.7928125 -25.28515625 7.1328125 C-24.28515625 4.1328125 -24.28515625 4.1328125 -21.09765625 2.5078125 C-14.33768987 -0.33045781 -7.1925964 -0.01394835 0 0 Z " fill="#083231" transform="translate(129.28515625,175.8671875)"/>
<path d="M0 0 C1.07507813 -0.00128906 2.15015625 -0.00257812 3.2578125 -0.00390625 C4.3921875 -0.00003906 5.5265625 0.00382812 6.6953125 0.0078125 C8.33886719 0.00201172 8.33886719 0.00201172 10.015625 -0.00390625 C21.11065404 0.00923952 30.92548128 0.71491883 41.4453125 4.3828125 C42.321875 4.67027344 43.1984375 4.95773438 44.1015625 5.25390625 C50.06745095 7.28089209 55.41978321 9.89413892 60.8203125 13.1328125 C60.8203125 13.7928125 60.8203125 14.4528125 60.8203125 15.1328125 C56.97925688 13.99087705 53.47668045 12.50110666 49.8828125 10.7578125 C26.16923728 -0.22189767 -1.4753663 0.71268728 -25.70703125 9.33984375 C-32.30251355 11.85356136 -38.20394614 15.40686662 -44.1796875 19.1328125 C-44.8396875 19.4628125 -45.4996875 19.7928125 -46.1796875 20.1328125 C-43.39261705 13.16513638 -35.02793255 10.38186256 -28.5546875 7.5078125 C-22.30852386 4.98328743 -15.90345308 3.43705629 -9.35546875 1.9296875 C-1.67283181 0.00194096 -1.67283181 0.00194096 0 0 Z " fill="#E78228" transform="translate(136.1796875,29.8671875)"/>
<path d="M0 0 C0.99 0.495 0.99 0.495 2 1 C2.37350838 2.96536552 2.6477144 4.94991066 2.875 6.9375 C3.74495282 13.1563034 5.38256896 18.3226226 8 24 C8.75209084 25.64487894 9.50216874 27.2906801 10.25 28.9375 C10.58515625 29.64777344 10.9203125 30.35804688 11.265625 31.08984375 C12 33 12 33 12 36 C12.66 36 13.32 36 14 36 C14.495 37.3921875 14.495 37.3921875 15 38.8125 C16.99092563 43.52531912 20.0822237 47.39689414 23.16015625 51.44921875 C25 54 25 54 26.11328125 56.25390625 C27.28396743 58.55917816 28.65099358 59.06039743 31 60 C31 60.99 31 61.98 31 63 C14.12617601 50.8854597 4.38856014 26.64693358 0 7 C-0.14202842 4.63539585 -0.09881669 2.37160048 0 0 Z " fill="#E27C23" transform="translate(37,145)"/>
<path d="M0 0 C0.33 0 0.66 0 1 0 C1.03440186 0.62753174 1.06880371 1.25506348 1.10424805 1.90161133 C2.20767571 20.68383199 4.96427836 37.86852536 13 55 C13.66 52.03 14.32 49.06 15 46 C15.33 46 15.66 46 16 46 C16 50.29 16 54.58 16 59 C14.68 59 13.36 59 12 59 C7.91495749 51.58330396 5.24611595 44.14936941 3 36 C2.69835938 35.03964844 2.39671875 34.07929688 2.0859375 33.08984375 C-0.96248904 22.27790103 -0.27809326 11.12800884 0 0 Z " fill="#E07C24" transform="translate(49,120)"/>
<path d="M0 0 C3.52067351 -0.08782542 7.04106144 -0.14066643 10.5625 -0.1875 C11.55314453 -0.21263672 12.54378906 -0.23777344 13.56445312 -0.26367188 C20.03797083 -0.32819199 25.51821244 -0.13184844 30.59350586 4.43334961 C32.19383078 6.09323074 33.69844428 7.80235481 35.1875 9.5625 C39.34318465 14.80993906 39.34318465 14.80993906 45 18 C48.27942758 18.24143666 48.27942758 18.24143666 51.75 18.125 C52.92046875 18.10695312 54.0909375 18.08890625 55.296875 18.0703125 C56.63492188 18.03550781 56.63492188 18.03550781 58 18 C54.39843282 20.40104479 51.26075868 21.05492691 47 21 C41.70812125 19.38552852 38.67424598 17.07146176 35 13 C34.236875 12.278125 33.47375 11.55625 32.6875 10.8125 C31 9 31 9 31 7 C30.401875 6.71125 29.80375 6.4225 29.1875 6.125 C27 5 27 5 24 3 C21.38972377 2.54119382 21.38972377 2.54119382 18.45703125 2.3671875 C17.38388672 2.28339844 16.31074219 2.19960937 15.20507812 2.11328125 C14.08552734 2.03464844 12.96597656 1.95601562 11.8125 1.875 C10.11577148 1.74544922 10.11577148 1.74544922 8.38476562 1.61328125 C5.59033286 1.40104585 2.79554519 1.19694519 0 1 C0 0.67 0 0.34 0 0 Z " fill="#021E1D" transform="translate(160,177)"/>
<path d="M0 0 C0 0.99 0 1.98 0 3 C1.31179621 4.58796383 2.6357469 6.16693672 4.0078125 7.703125 C6.52248943 10.60239957 8.8935925 13.59655157 11.25 16.625 C11.90427979 17.45040283 11.90427979 17.45040283 12.57177734 18.29248047 C18.15183494 25.49472348 18.15183494 25.49472348 17.875 30.0625 C16.41797551 33.28876852 14.14637789 35.42681105 11 37 C9.3325394 37.08426094 7.66174813 37.10725143 5.9921875 37.09765625 C5.00605469 37.09443359 4.01992187 37.09121094 3.00390625 37.08789062 C1.97136719 37.07951172 0.93882812 37.07113281 -0.125 37.0625 C-1.68541016 37.05573242 -1.68541016 37.05573242 -3.27734375 37.04882812 C-5.85161962 37.03701952 -8.42578146 37.02055075 -11 37 C-11 36.67 -11 36.34 -11 36 C-9.78183594 35.95101562 -8.56367188 35.90203125 -7.30859375 35.8515625 C-5.68487563 35.77647727 -4.06117874 35.70093198 -2.4375 35.625 C-1.63763672 35.5940625 -0.83777344 35.563125 -0.01367188 35.53125 C4.96423083 35.28743436 9.26444649 34.56368612 14 33 C15.02346525 29.83656196 15.15734823 28.37720467 13.859375 25.265625 C11.72058298 21.50925918 9.26372411 18.23796977 6.5625 14.875 C6.08490234 14.26785156 5.60730469 13.66070312 5.11523438 13.03515625 C2.57048674 9.83065923 -0.02734023 6.82508092 -3 4 C-2.01 2.68 -1.02 1.36 0 0 Z " fill="#022625" transform="translate(151,112)"/>
<path d="M0 0 C0.66 0.66 1.32 1.32 2 2 C1.34 2 0.68 2 0 2 C-0.27714844 2.59425781 -0.55429688 3.18851563 -0.83984375 3.80078125 C-1.92800578 5.86352611 -3.07571418 7.40420418 -4.5625 9.1875 C-8.7097797 14.59919424 -11.6173866 20.67129107 -14.75 26.69921875 C-16.74263487 30.53009341 -18.80076068 34.30985157 -20.9375 38.0625 C-21.48277344 39.02285156 -22.02804688 39.98320313 -22.58984375 40.97265625 C-23.05519531 41.64167969 -23.52054687 42.31070313 -24 43 C-24.66 43 -25.32 43 -26 43 C-24.38781309 37.05260316 -21.34023242 32.08489897 -18.25 26.8125 C-17.15770665 24.93426062 -16.06654839 23.05536064 -14.9765625 21.17578125 C-14.45739258 20.28068848 -13.93822266 19.3855957 -13.40332031 18.46337891 C-11.72360701 15.51482163 -10.17044831 12.52064898 -8.625 9.5 C-6.35293252 5.24663558 -3.96138622 2.73524286 0 0 Z " fill="#E47D28" transform="translate(131,51)"/>
<path d="M0 0 C-0.57443848 0.0501123 -1.14887695 0.10022461 -1.74072266 0.15185547 C-4.36953886 0.38544563 -6.99721151 0.63012958 -9.625 0.875 C-10.52863281 0.95363281 -11.43226563 1.03226563 -12.36328125 1.11328125 C-17.21387627 1.57355669 -21.39379334 2.33863833 -26 4 C-28.17952594 4.40032109 -30.36806705 4.75419124 -32.5625 5.0625 C-36.40326862 5.6098887 -40.20300418 6.2010046 -44 7 C-44 6.34 -44 5.68 -44 5 C-10.16482879 -6.77655252 -10.16482879 -6.77655252 0 0 Z " fill="#EC8220" transform="translate(152,18)"/>
<path d="M0 0 C-2 2 -2 2 -5.51953125 2.125 C-7.67092613 2.07696886 -9.82020287 1.99972116 -11.97070312 1.921875 C-16.13986717 1.82931262 -19.25427486 2.11609895 -23 4 C-23 5.65 -23 7.3 -23 9 C-24.32 9 -25.64 9 -27 9 C-27 9.99 -27 10.98 -27 12 C-27.66 12 -28.32 12 -29 12 C-29 11.01 -29 10.02 -29 9 C-32.21043882 10.38188453 -34.04936365 11.92421903 -36.25 14.625 C-37.03117187 15.57246094 -37.03117187 15.57246094 -37.828125 16.5390625 C-38.21484375 17.02117187 -38.6015625 17.50328125 -39 18 C-39 13.07760383 -35.28499616 10.41667322 -32 7 C-22.58567405 -2.1598847 -12.11303184 -1.29280618 0 0 Z " fill="#1A473C" transform="translate(155,149)"/>
<path d="M0 0 C0 0.33 0 0.66 0 1 C-1.4540625 1.22042969 -1.4540625 1.22042969 -2.9375 1.4453125 C-18.86048691 4.03495424 -32.29912881 9.56540117 -46 18 C-43.18240216 10.9560054 -34.67330363 8.17307474 -28.125 5.3125 C-18.81443362 1.6121467 -10.05230387 -0.60046948 0 0 Z " fill="#DD7E2A" transform="translate(136,32)"/>
<path d="M0 0 C0.33 0.66 0.66 1.32 1 2 C0 5 0 5 -2 6 C-1.690625 6.70125 -1.38125 7.4025 -1.0625 8.125 C0.03302678 11.08936657 0.56422992 13.87698108 1 17 C-0.32 16.67 -1.64 16.34 -3 16 C-3 16.66 -3 17.32 -3 18 C-5.475 17.01 -5.475 17.01 -8 16 C-8 9.36761533 -3.93247777 4.98361177 0 0 Z " fill="#135148" transform="translate(159,101)"/>
<path d="M0 0 C0.66 0.33 1.32 0.66 2 1 C1.66677734 1.49927002 1.33355469 1.99854004 0.99023438 2.51293945 C-0.51364684 4.77480834 -2.00689989 7.04350143 -3.5 9.3125 C-4.02464844 10.09818359 -4.54929688 10.88386719 -5.08984375 11.69335938 C-5.58613281 12.45068359 -6.08242187 13.20800781 -6.59375 13.98828125 C-7.05458984 14.68477783 -7.51542969 15.38127441 -7.99023438 16.09887695 C-9.2345403 18.08280294 -9.2345403 18.08280294 -9 21 C-6.69 21.33 -4.38 21.66 -2 22 C-2 22.66 -2 23.32 -2 24 C-4.64 24.66 -7.28 25.32 -10 26 C-10 25.01 -10 24.02 -10 23 C-10.66 23 -11.32 23 -12 23 C-11.67756114 17.73349866 -10.56908663 14.90908346 -7.3359375 10.76953125 C-5.98139079 8.97535096 -4.89611848 7.15512302 -3.8125 5.1875 C-2 2 -2 2 0 0 Z " fill="#DD7726" transform="translate(140,125)"/>
<path d="M0 0 C13.13453594 -0.88052755 25.06931677 2.72242718 37 8 C37 8.66 37 9.32 37 10 C35.824375 9.5875 34.64875 9.175 33.4375 8.75 C26.7197402 6.49998109 19.85393172 4.77895198 13 3 C12.67 3.66 12.34 4.32 12 5 C11.67 4.01 11.34 3.02 11 2 C9.6696875 2.309375 9.6696875 2.309375 8.3125 2.625 C4.7747289 3.02550239 3.13367033 2.56683516 0 1 C0 0.67 0 0.34 0 0 Z " fill="#E77B24" transform="translate(156,18)"/>
<path d="M0 0 C0.66 0.33 1.32 0.66 2 1 C0.27840626 2.94470746 -1.45166256 4.88057309 -3.1875 6.8125 C-3.67025391 7.35970703 -4.15300781 7.90691406 -4.65039062 8.47070312 C-9.1255707 13.42643945 -13.13464102 16.46154047 -20 17 C-22.70152055 16.78993601 -25.3181126 16.41615494 -28 16 C-27.67 15.01 -27.34 14.02 -27 13 C-25.2675 13.3403125 -25.2675 13.3403125 -23.5 13.6875 C-17.5893509 14.41979281 -13.23754112 12.49169408 -8.375 9.25 C-5.33038326 6.36562625 -2.65207298 3.24446042 0 0 Z " fill="#D67A26" transform="translate(102,183)"/>
<path d="M0 0 C0.98726527 2.66561622 1.0275526 3.90126985 0.25 6.6875 C-1 9 -1 9 -4 10 C-5.06571163 12.31413009 -5.06571163 12.31413009 -6 15 C-6.92514772 16.64411966 -7.88483917 18.26919512 -8.875 19.875 C-11.32141577 23.88040622 -13.6906563 27.91423808 -16 32 C-16.66 32 -17.32 32 -18 32 C-16.53309333 28.04505535 -14.67033302 24.50811328 -12.55859375 20.859375 C-12.06698509 20.00789886 -12.06698509 20.00789886 -11.56544495 19.13922119 C-10.87699029 17.94834856 -10.1869363 16.75839922 -9.49536133 15.56933594 C-8.43384734 13.74371807 -7.37767709 11.91508877 -6.32226562 10.0859375 C-1.14913538 1.14913538 -1.14913538 1.14913538 0 0 Z " fill="#E67B20" transform="translate(103,96)"/>
<path d="M0 0 C-1.65783091 3.91850942 -4.10938356 6.90291096 -7 10 C-8.33301527 10.33460302 -9.66637116 10.66785093 -11 11 C-12.95826419 12.3867198 -12.95826419 12.3867198 -14.75 14.0625 C-15.36359375 14.61035156 -15.9771875 15.15820312 -16.609375 15.72265625 C-17.29773438 16.35494141 -17.29773438 16.35494141 -18 17 C-18.66 16.67 -19.32 16.34 -20 16 C-4.65306122 0 -4.65306122 0 0 0 Z " fill="#EE8421" transform="translate(84,36)"/>
<path d="M0 0 C0.99 0.33 1.98 0.66 3 1 C3.33 3.31 3.66 5.62 4 8 C3.01 8.33 2.02 8.66 1 9 C-0.20882096 11.00016466 -0.20882096 11.00016466 -1 13 C-1.66 13 -2.32 13 -3 13 C-3 13.66 -3 14.32 -3 15 C-3.66 15 -4.32 15 -5 15 C-5 15.99 -5 16.98 -5 18 C-5.66 18 -6.32 18 -7 18 C-5.44777764 13.99009223 -3.69622277 10.08951146 -1.90234375 6.18359375 C-1.05457328 4.13206262 -0.47607428 2.16442017 0 0 Z " fill="#174E49" transform="translate(174,72)"/>
<path d="M0 0 C4.47178709 0.58950112 7.96745036 2.38788021 11.8125 4.625 C12.73409912 5.15480469 12.73409912 5.15480469 13.67431641 5.6953125 C18.6108451 8.60910019 22.92685271 11.95215176 27 16 C26.67 16.66 26.34 17.32 26 18 C18.50232558 12.41860465 18.50232558 12.41860465 15.375 9.8125 C12.71266122 7.78071514 10.01726776 6.44828852 7 5 C4.64855247 3.69627405 2.32597253 2.34906407 0 1 C0 0.67 0 0.34 0 0 Z " fill="#E4781D" transform="translate(194,28)"/>
<path d="M0 0 C0.66 0 1.32 0 2 0 C1.36275015 3.27516785 0.16389024 5.57208641 -1.625 8.375 C-5.52604893 14.70000166 -8.74950319 21.32590299 -12 28 C-12.8827867 25.55713994 -13.12991787 24.36372812 -12.24316406 21.88110352 C-11.83807617 21.13787842 -11.43298828 20.39465332 -11.015625 19.62890625 C-10.57476562 18.80712891 -10.13390625 17.98535156 -9.6796875 17.13867188 C-9.20789063 16.28853516 -8.73609375 15.43839844 -8.25 14.5625 C-7.79367188 13.71623047 -7.33734375 12.86996094 -6.8671875 11.99804688 C-5.59709435 9.6542478 -4.30324987 7.32547981 -3 5 C-2.43796875 3.97777344 -1.8759375 2.95554688 -1.296875 1.90234375 C-0.86890625 1.27457031 -0.4409375 0.64679688 0 0 Z " fill="#E47B23" transform="translate(78,138)"/>
<path d="M0 0 C0.99 0.33 1.98 0.66 3 1 C-2.52631579 10.76315789 -2.52631579 10.76315789 -7 13 C-7.99 14.485 -7.99 14.485 -9 16 C-9.99 15.67 -10.98 15.34 -12 15 C-11.34 15 -10.68 15 -10 15 C-10 14.01 -10 13.02 -10 12 C-9.34 12 -8.68 12 -8 12 C-8.33 10.35 -8.66 8.7 -9 7 C-8.2575 6.731875 -7.515 6.46375 -6.75 6.1875 C-4.10938051 5.04723249 -2.14447156 3.90619694 0 2 C0 1.34 0 0.68 0 0 Z " fill="#FB8D1A" transform="translate(146,114)"/>
<path d="M0 0 C5.23736753 1.38636199 8.06629427 4.64159234 11 9 C12.23723653 11.64528557 13.11729136 14.20475596 14 17 C13.34 17 12.68 17 12 17 C12 19.31 12 21.62 12 24 C11.87625 23.360625 11.7525 22.72125 11.625 22.0625 C11.41875 21.381875 11.2125 20.70125 11 20 C10.34 19.67 9.68 19.34 9 19 C9.66 19 10.32 19 11 19 C9.18155664 11.42315266 6.22673564 6.84301661 0 2 C0 1.34 0 0.68 0 0 Z " fill="#E9801C" transform="translate(161,50)"/>
<path d="M0 0 C3.52067351 -0.08782542 7.04106144 -0.14066643 10.5625 -0.1875 C11.55314453 -0.21263672 12.54378906 -0.23777344 13.56445312 -0.26367188 C20.32870438 -0.33108966 25.63618796 0.07022822 30.9375 4.6875 C31.4634375 5.3371875 31.4634375 5.3371875 32 6 C31.67 6.66 31.34 7.32 31 8 C30.10152344 7.20207031 29.20304687 6.40414062 28.27734375 5.58203125 C23.15913288 1.92616634 17.67096869 1.98839193 11.5625 1.6875 C10.44939453 1.61466797 9.33628906 1.54183594 8.18945312 1.46679688 C5.46021261 1.2910947 2.73145304 1.13611045 0 1 C0 0.67 0 0.34 0 0 Z " fill="#022626" transform="translate(160,177)"/>
<path d="M0 0 C0 2.62113708 -0.31292445 4.50935112 -1 7 C-0.34 7 0.32 7 1 7 C1 7.66 1 8.32 1 9 C1.99 9.33 2.98 9.66 4 10 C1.33333333 10.66666667 -1.33333333 11.33333333 -4 12 C-5.12148437 12.28037109 -5.12148437 12.28037109 -6.265625 12.56640625 C-6.83796875 12.70949219 -7.4103125 12.85257813 -8 13 C-6.40956621 7.91061189 -3.2553049 4.12543357 0 0 Z " fill="#1E4A3F" transform="translate(114,167)"/>
<path d="M0 0 C1.33985898 1.66142513 2.67082708 3.33001351 4 5 C4.59039062 5.73605469 5.18078125 6.47210938 5.7890625 7.23046875 C6.41554688 8.02066406 7.04203125 8.81085938 7.6875 9.625 C8.28949219 10.38039062 8.89148438 11.13578125 9.51171875 11.9140625 C11 14 11 14 12 17 C14.00016466 18.20882096 14.00016466 18.20882096 16 19 C16 19.99 16 20.98 16 22 C9.61037241 17.41257506 2.28609112 9.85416956 0.23828125 2.125 C0.15964844 1.42375 0.08101562 0.7225 0 0 Z " fill="#DA771E" transform="translate(52,186)"/>
<path d="M0 0 C3.85870232 0.57526525 5.89498568 2.35772398 8.75 4.9375 C9.54921875 5.64777344 10.3484375 6.35804687 11.171875 7.08984375 C13 9 13 9 13 11 C13.66 11 14.32 11 15 11 C16.38232443 12.62626404 17.71937515 14.2925002 19 16 C18.01 16.33 17.02 16.66 16 17 C15.59910156 16.5153125 15.19820312 16.030625 14.78515625 15.53125 C10.75113951 10.77458627 6.46721348 6.61393337 1.72265625 2.56640625 C1.15417969 2.04949219 0.58570313 1.53257813 0 1 C0 0.67 0 0.34 0 0 Z " fill="#D87721" transform="translate(206,51)"/>
<path d="M0 0 C8.87691323 0.15305023 15.37684116 3.84684234 23 8 C23 8.66 23 9.32 23 10 C17.98534591 8.50915689 13.37196892 6.3657537 8.63671875 4.17578125 C5.8099511 2.91525227 2.96676839 1.88201223 0 1 C0 0.67 0 0.34 0 0 Z " fill="#E07C26" transform="translate(174,35)"/>
<path d="M0 0 C2.26825332 0.80827684 3.90677652 1.82233546 5.84375 3.24609375 C6.45734375 3.68953125 7.0709375 4.13296875 7.703125 4.58984375 C8.39148438 5.1621875 8.39148438 5.1621875 9.09375 5.74609375 C9.09375 6.07609375 9.09375 6.40609375 9.09375 6.74609375 C8.31 6.86984375 7.52625 6.99359375 6.71875 7.12109375 C3.95317178 7.53727368 3.95317178 7.53727368 2.09375 9.74609375 C1.09375 6.74609375 1.09375 6.74609375 2.09375 3.74609375 C0.77375 3.08609375 -0.54625 2.42609375 -1.90625 1.74609375 C-2.23625 2.73609375 -2.56625 3.72609375 -2.90625 4.74609375 C-3.89625 4.08609375 -4.88625 3.42609375 -5.90625 2.74609375 C-2.46316869 -0.32808599 -2.46316869 -0.32808599 0 0 Z " fill="#174B47" transform="translate(77.90625,201.25390625)"/>
<path d="M0 0 C0.66 0 1.32 0 2 0 C0.34178272 4.29478275 -1.55379056 8.45571451 -3.5 12.625 C-3.80808594 13.29273437 -4.11617187 13.96046875 -4.43359375 14.6484375 C-5.80464749 17.5906129 -7.19563049 20.29344573 -9 23 C-8.77837361 16.12958196 -7.23593286 12.00372066 -3.47265625 6.26171875 C-2.14576865 4.2238728 -1.0396983 2.19491863 0 0 Z " fill="#E37D20" transform="translate(64,74)"/>
<path d="M0 0 C0.66 0.33 1.32 0.66 2 1 C0.42893566 4.14212869 -2.70377327 5.02621824 -5.75 6.5 C-6.37132813 6.80808594 -6.99265625 7.11617187 -7.6328125 7.43359375 C-11.03662824 9.10677744 -14.4565561 10.6475405 -18 12 C-16.83848784 8.51546351 -16.35660804 8.34647315 -13.25390625 6.703125 C-12.49916016 6.30222656 -11.74441406 5.90132812 -10.96679688 5.48828125 C-9.77666992 4.87533203 -9.77666992 4.87533203 -8.5625 4.25 C-7.77294922 3.82589844 -6.98339844 3.40179687 -6.16992188 2.96484375 C-1.78796233 0.67113261 -1.78796233 0.67113261 0 0 Z " fill="#E67B23" transform="translate(104,24)"/>
<path d="M0 0 C2.97 0.33 5.94 0.66 9 1 C8.29875 1.556875 7.5975 2.11375 6.875 2.6875 C3.88655739 5.09124732 0.94059762 7.53810432 -2 10 C-2.1875 7.625 -2.1875 7.625 -2 5 C-1.01 4.34 -0.02 3.68 1 3 C0.67 2.01 0.34 1.02 0 0 Z " fill="#EC9E36" transform="translate(121,150)"/>
<path d="M0 0 C1 3 1 3 0.3190918 4.79345703 C-0.05046631 5.44169434 -0.42002441 6.08993164 -0.80078125 6.7578125 C-1.20103516 7.46550781 -1.60128906 8.17320313 -2.01367188 8.90234375 C-2.44228516 9.63582031 -2.87089844 10.36929688 -3.3125 11.125 C-3.72951172 11.86621094 -4.14652344 12.60742188 -4.57617188 13.37109375 C-7.7228139 18.86140695 -7.7228139 18.86140695 -10 20 C-10 17.69 -10 15.38 -10 13 C-9.34 13 -8.68 13 -8 13 C-7.67 12.34 -7.34 11.68 -7 11 C-6.34 11 -5.68 11 -5 11 C-4.731875 10.29875 -4.46375 9.5975 -4.1875 8.875 C-2.9318551 5.8350176 -1.49764877 2.9272226 0 0 Z " fill="#DDA243" transform="translate(172,76)"/>
<path d="M0 0 C0.66 0.66 1.32 1.32 2 2 C1.625 5.625 1.625 5.625 1 9 C0.34 9 -0.32 9 -1 9 C-1.4021875 10.3303125 -1.4021875 10.3303125 -1.8125 11.6875 C-2.93113051 14.80789038 -4.03803137 17.33172267 -6 20 C-6.99 20 -7.98 20 -9 20 C-9 19.01 -9 18.02 -9 17 C-8.01 16.34 -7.02 15.68 -6 15 C-5.67 14.01 -5.34 13.02 -5 12 C-4.34 12 -3.68 12 -3 12 C-2.67 10.68 -2.34 9.36 -2 8 C-1.34 8 -0.68 8 0 8 C0 5.36 0 2.72 0 0 Z " fill="#EC962F" transform="translate(173,67)"/>
<path d="M0 0 C0 0.66 0 1.32 0 2 C-0.86882812 1.9278125 -1.73765625 1.855625 -2.6328125 1.78125 C-3.78523437 1.6884375 -4.93765625 1.595625 -6.125 1.5 C-7.26195312 1.4071875 -8.39890625 1.314375 -9.5703125 1.21875 C-12.72597149 1.0174779 -15.83921165 0.96157096 -19 1 C-19 0.34 -19 -0.32 -19 -1 C-12.20304851 -2.64774582 -6.54547997 -2.13729958 0 0 Z " fill="#EA7B1E" transform="translate(160,48)"/>
<path d="M0 0 C8.30894309 6.82926829 8.30894309 6.82926829 10 10 C9.875 12.1875 9.875 12.1875 9 14 C8.01 14.33 7.02 14.66 6 15 C6 14.01 6 13.02 6 12 C6.66 12 7.32 12 8 12 C7.4225 11.30132812 6.845 10.60265625 6.25 9.8828125 C5.13625 8.51769531 5.13625 8.51769531 4 7.125 C3.2575 6.22007813 2.515 5.31515625 1.75 4.3828125 C0 2 0 2 0 0 Z " fill="#D5822B" transform="translate(224,47)"/>
<path d="M0 0 C0 0.66 0 1.32 0 2 C-2.29129293 3.31315613 -4.5830155 4.62555193 -6.875 5.9375 C-7.52597656 6.31068359 -8.17695312 6.68386719 -8.84765625 7.06835938 C-13.7734375 9.88671875 -13.7734375 9.88671875 -16 11 C-14.52567422 7.13827168 -12.54701627 5.81800775 -9 3.8125 C-8.113125 3.30332031 -7.22625 2.79414062 -6.3125 2.26953125 C-2.17846154 0 -2.17846154 0 0 0 Z " fill="#DF751D" transform="translate(106,39)"/>
<path d="M0 0 C8.25 0 16.5 0 25 0 C25 0.33 25 0.66 25 1 C23.72382813 1.06058594 22.44765625 1.12117188 21.1328125 1.18359375 C19.46352984 1.26799568 17.79425963 1.35264386 16.125 1.4375 C15.28324219 1.47681641 14.44148437 1.51613281 13.57421875 1.55664062 C12.76855469 1.59853516 11.96289062 1.64042969 11.1328125 1.68359375 C10.01737061 1.73858032 10.01737061 1.73858032 8.87939453 1.79467773 C6.91135688 1.89955865 6.91135688 1.89955865 5 3 C2.99199544 2.71887936 0.98985949 2.38932033 -1 2 C-0.67 1.34 -0.34 0.68 0 0 Z " fill="#EE7708" transform="translate(131,30)"/>
<path d="M0 0 C0.33 0.66 0.66 1.32 1 2 C0.2575 3.1446875 0.2575 3.1446875 -0.5 4.3125 C-2.31590151 7.5659902 -1.80751752 8.50075741 -1 12 C-1.9375 14.3125 -1.9375 14.3125 -3 16 C-3.66 16 -4.32 16 -5 16 C-5 15.01 -5 14.02 -5 13 C-4.34 13 -3.68 13 -3 13 C-3 12.34 -3 11.68 -3 11 C-3.99 11 -4.98 11 -6 11 C-4.54955729 6.89041233 -2.48889248 3.56741255 0 0 Z " fill="#1C4739" transform="translate(166,90)"/>
<path d="M0 0 C0.85722656 -0.00515625 1.71445313 -0.0103125 2.59765625 -0.015625 C4.9375 0.25 4.9375 0.25 7.9375 2.25 C5.66729256 2.44493195 3.39629711 2.63070418 1.125 2.8125 C-0.13957031 2.91691406 -1.40414062 3.02132813 -2.70703125 3.12890625 C-6.0625 3.25 -6.0625 3.25 -9.0625 2.25 C-5.93061623 0.41882898 -3.61429405 -0.0218057 0 0 Z " fill="#F77F17" transform="translate(144.0625,15.75)"/>
<path d="M0 0 C0.66 0.33 1.32 0.66 2 1 C0.71034824 2.37562854 -0.62689293 3.70766393 -2 5 C-2.66 5 -3.32 5 -4 5 C-2.35 7.97 -0.7 10.94 1 14 C0.01 14.495 0.01 14.495 -1 15 C-2.98 12.03 -4.96 9.06 -7 6 C-4.69 4.02 -2.38 2.04 0 0 Z " fill="#14281C" transform="translate(230,62)"/>
<path d="M0 0 C0.33 0.99 0.66 1.98 1 3 C3.97 3.33 6.94 3.66 10 4 C10 4.66 10 5.32 10 6 C7.36 6.66 4.72 7.32 2 8 C2 7.01 2 6.02 2 5 C1.34 5 0.68 5 0 5 C0 3.35 0 1.7 0 0 Z " fill="#C8832D" transform="translate(128,143)"/>
<path d="M0 0 C0.99 0.33 1.98 0.66 3 1 C1.73034469 2.43854058 0.45922782 3.87579127 -0.8125 5.3125 C-1.52019531 6.11300781 -2.22789063 6.91351563 -2.95703125 7.73828125 C-4.59337122 9.54983162 -6.25272168 11.29681703 -8 13 C-7.39665691 9.29496359 -5.77525763 7.14031852 -3.4375 4.25 C-2.79683594 3.45078125 -2.15617187 2.6515625 -1.49609375 1.828125 C-1.00238281 1.22484375 -0.50867188 0.6215625 0 0 Z " fill="#E1731E" transform="translate(74,61)"/>
<path d="M0 0 C2.31 0.33 4.62 0.66 7 1 C4.25604436 3.94721162 1.61662784 6.19168608 -2 8 C-2.66 7.67 -3.32 7.34 -4 7 C-2.625 5 -2.625 5 -1 3 C-0.34 3 0.32 3 1 3 C0.67 2.01 0.34 1.02 0 0 Z " fill="#E7A034" transform="translate(72,198)"/>
<path d="M0 0 C0.99 0.495 0.99 0.495 2 1 C2.47618812 3.87182587 2.84167597 6.67120147 3.125 9.5625 C3.21136719 10.36880859 3.29773437 11.17511719 3.38671875 12.00585938 C3.59943628 14.00304064 3.80077855 16.00142737 4 18 C0.26790462 12.40185694 -0.27269478 6.54467462 0 0 Z " fill="#E08629" transform="translate(37,145)"/>
<path d="M0 0 C0 0.99 0 1.98 0 3 C1.23926259 4.78461732 1.23926259 4.78461732 2.875 6.5 C4.81019815 8.63152259 6.39002236 10.58503354 8 13 C4.88079662 12.66579964 4.04525746 12.05211466 1.9375 9.625 C1.298125 8.75875 0.65875 7.8925 0 7 C-0.98230498 5.9826127 -1.97469597 4.97403883 -3 4 C-2.01 2.68 -1.02 1.36 0 0 Z " fill="#0D2D21" transform="translate(151,112)"/>
<path d="M0 0 C-1.49041773 3.79379058 -3.69062512 5.68343758 -7 8 C-7.66 8 -8.32 8 -9 8 C-9.33 8.99 -9.66 9.98 -10 11 C-10.66 11 -11.32 11 -12 11 C-10.5611898 7.612801 -8.77880501 5.6405896 -6 3.25 C-5.29875 2.63640625 -4.5975 2.0228125 -3.875 1.390625 C-2 0 -2 0 0 0 Z " fill="#DE751B" transform="translate(89,49)"/>
<path d="M0 0 C1.95825873 -0.02694851 3.91662226 -0.04637218 5.875 -0.0625 C6.96554688 -0.07410156 8.05609375 -0.08570312 9.1796875 -0.09765625 C12 0 12 0 14 1 C13.34 2.32 12.68 3.64 12 5 C11.67 4.01 11.34 3.02 11 2 C9.6696875 2.309375 9.6696875 2.309375 8.3125 2.625 C4.7747289 3.02550239 3.13367033 2.56683516 0 1 C0 0.67 0 0.34 0 0 Z " fill="#F17D1C" transform="translate(156,18)"/>
<path d="M0 0 C2.97 0.495 2.97 0.495 6 1 C4.02 3.97 2.04 6.94 0 10 C-0.33 8.68 -0.66 7.36 -1 6 C-0.34 6 0.32 6 1 6 C0.67 4.02 0.34 2.04 0 0 Z " fill="#E69F38" transform="translate(156,96)"/>
<path d="M0 0 C-1.28062485 1.7074998 -2.61767557 3.37373596 -4 5 C-4.66 5 -5.32 5 -6 5 C-6 5.66 -6 6.32 -6 7 C-6.99 7.33 -7.98 7.66 -9 8 C-8.690625 7.4225 -8.38125 6.845 -8.0625 6.25 C-6.9327131 4.0661063 -6.9327131 4.0661063 -6.5 1.8125 C-6.335 1.214375 -6.17 0.61625 -6 0 C-3.50907189 -1.24546405 -2.58919267 -0.7767578 0 0 Z " fill="#13514E" transform="translate(228,204)"/>
<path d="M0 0 C-0.66 1.65 -1.32 3.3 -2 5 C-3.65 4.67 -5.3 4.34 -7 4 C-7.33 3.01 -7.66 2.02 -8 1 C-5.07175348 0.02391783 -3.04386724 -0.08226668 0 0 Z " fill="#F68918" transform="translate(140,49)"/>
<path d="M0 0 C-2.19708121 2.19708121 -3.51773333 2.64677679 -6.4375 3.5625 C-7.21996094 3.81128906 -8.00242187 4.06007812 -8.80859375 4.31640625 C-9.89333984 4.65478516 -9.89333984 4.65478516 -11 5 C-11.99 5.33 -12.98 5.66 -14 6 C-13 3 -13 3 -9.8125 1.3125 C-6.4652075 -0.01535157 -3.61508773 -0.26451861 0 0 Z " fill="#0F221F" transform="translate(118,177)"/>
<path d="M0 0 C-1.38188453 3.21043882 -2.92421903 5.04936365 -5.625 7.25 C-6.57246094 8.03117187 -6.57246094 8.03117187 -7.5390625 8.828125 C-8.02117187 9.21484375 -8.50328125 9.6015625 -9 10 C-9.66 9.67 -10.32 9.34 -11 9 C-9.54782324 7.49403892 -8.08807139 5.99537896 -6.625 4.5 C-5.40683594 3.24703125 -5.40683594 3.24703125 -4.1640625 1.96875 C-2 0 -2 0 0 0 Z " fill="#DF7B29" transform="translate(75,43)"/>
<path d="M0 0 C3.96996957 1.32332319 5.76036395 4.0089399 8.14453125 7.24609375 C9 9 9 9 8 12 C6.66382103 10.18959679 5.33112616 8.3766216 4 6.5625 C3.2575 5.55316406 2.515 4.54382813 1.75 3.50390625 C0 1 0 1 0 0 Z " fill="#021A19" transform="translate(157,125)"/>
<path d="M0 0 C1.32 0.66 2.64 1.32 4 2 C2.55746343 5.36591866 0.66735273 7.51047079 -2 10 C-2 9.34 -2 8.68 -2 8 C-2.66 8 -3.32 8 -4 8 C-3.67 7.34 -3.34 6.68 -3 6 C-2.01 6.33 -1.02 6.66 0 7 C0 4.69 0 2.38 0 0 Z " fill="#E4A240" transform="translate(151,104)"/>
<path d="M0 0 C2.31 0.66 4.62 1.32 7 2 C7 2.99 7 3.98 7 5 C5.02 5.99 5.02 5.99 3 7 C0 2.25 0 2.25 0 0 Z " fill="#10504E" transform="translate(226,67)"/>
<path d="M0 0 C3.08089673 2.77280706 4.68775452 5.06326356 6 9 C5.34 9 4.68 9 4 9 C3.7525 8.195625 3.505 7.39125 3.25 6.5625 C2.27761141 3.828919 2.27761141 3.828919 -0.125 3.1875 C-0.74375 3.125625 -1.3625 3.06375 -2 3 C-1.34 2.01 -0.68 1.02 0 0 Z " fill="#0E1F1A" transform="translate(234,58)"/>
<path d="M0 0 C3.15330554 0.60694155 5.18888867 1.6416665 7.75 3.5625 C8.67039062 4.24505859 8.67039062 4.24505859 9.609375 4.94140625 C10.29773438 5.46541016 10.29773438 5.46541016 11 6 C10.34 6.66 9.68 7.32 9 8 C7.49712782 6.85793642 5.99776716 5.71125043 4.5 4.5625 C3.6646875 3.92441406 2.829375 3.28632813 1.96875 2.62890625 C1.3190625 2.09136719 0.669375 1.55382812 0 1 C0 0.67 0 0.34 0 0 Z " fill="#091E1C" transform="translate(78,200)"/>
<path d="M0 0 C0.99 0.33 1.98 0.66 3 1 C-0.625 7.75 -0.625 7.75 -4 10 C-2.66666667 6.66666667 -1.33333333 3.33333333 0 0 Z " fill="#D6791F" transform="translate(146,114)"/>
<path d="M0 0 C0.66 0 1.32 0 2 0 C0.55049545 3.7910119 -1.15172566 7.3874638 -3 11 C-3.75 9.4375 -3.75 9.4375 -4 7 C-2.86915563 4.49713591 -1.47860484 2.32992278 0 0 Z " fill="#DB7B28" transform="translate(64,74)"/>
<path d="M0 0 C0.99 0 1.98 0 3 0 C1.8141763 3.37503669 0.72426311 5.64722731 -2 8 C-2.33 6.35 -2.66 4.7 -3 3 C-2.34 3 -1.68 3 -1 3 C-0.67 2.01 -0.34 1.02 0 0 Z " fill="#E6A43C" transform="translate(109,169)"/>
<path d="M0 0 C0.66 1.32 1.32 2.64 2 4 C1.34 4 0.68 4 0 4 C-0.33 4.99 -0.66 5.98 -1 7 C-1.99 6.67 -2.98 6.34 -4 6 C-2.68 4.02 -1.36 2.04 0 0 Z " fill="#135351" transform="translate(154,110)"/>
<path d="M0 0 C2 3 2 3 1.8125 5.125 C1.544375 5.74375 1.27625 6.3625 1 7 C0.01 7.33 -0.98 7.66 -2 8 C-1.125 2.25 -1.125 2.25 0 0 Z " fill="#F98914" transform="translate(67,162)"/>
<path d="M0 0 C0.99 0.33 1.98 0.66 3 1 C1.35 4.3 -0.3 7.6 -2 11 C-3 9 -3 9 -2.44140625 6.8359375 C-2.15136719 6.02382812 -1.86132812 5.21171875 -1.5625 4.375 C-1.27503906 3.55773437 -0.98757812 2.74046875 -0.69140625 1.8984375 C-0.46324219 1.27195312 -0.23507813 0.64546875 0 0 Z " fill="#23402D" transform="translate(174,72)"/>
<path d="M0 0 C2.31 0.66 4.62 1.32 7 2 C5.68 2.99 4.36 3.98 3 5 C1.68 4.34 0.36 3.68 -1 3 C-0.67 2.01 -0.34 1.02 0 0 Z " fill="#094F4C" transform="translate(77,211)"/>
<path d="M0 0 C2.31 0.33 4.62 0.66 7 1 C3.77208445 3.1519437 2.71599191 3.20086443 -1 3 C-0.67 2.01 -0.34 1.02 0 0 Z " fill="#EC740B" transform="translate(75,196)"/>
<path d="M0 0 C1.32 0.66 2.64 1.32 4 2 C2.35 3.32 0.7 4.64 -1 6 C-1 5.34 -1 4.68 -1 4 C-1.66 3.34 -2.32 2.68 -3 2 C-2.01 1.34 -1.02 0.68 0 0 Z " fill="#033D3D" transform="translate(218,192)"/>
<path d="M0 0 C0.6875 1.6875 0.6875 1.6875 1 4 C-0.3125 6.75 -0.3125 6.75 -2 9 C-2.66 9 -3.32 9 -4 9 C-2.80100302 5.9168649 -1.52299523 2.93720508 0 0 Z " fill="#DD7E2A" transform="translate(95,109)"/>
<path d="M0 0 C2.64 0 5.28 0 8 0 C6.875 1.5625 6.875 1.5625 5 3 C1.8125 2.6875 1.8125 2.6875 -1 2 C-0.67 1.34 -0.34 0.68 0 0 Z " fill="#F28615" transform="translate(131,30)"/>
<path d="M0 0 C3.96 0.33 7.92 0.66 12 1 C12 1.33 12 1.66 12 2 C7.545 2.495 7.545 2.495 3 3 C3 2.34 3 1.68 3 1 C2.01 0.67 1.02 0.34 0 0 Z " fill="#EF8C37" transform="translate(149,16)"/>
</svg>
